<svg width="80" height="80" viewBox="0 0 80 80" fill="none" xmlns="http://www.w3.org/2000/svg">
<g clip-path="url(#clip0_311_3775)">
<path d="M79.1434 60.6695C76.1654 55.0398 65.8239 48.9354 65.3686 48.6685C64.0397 47.9121 62.6531 47.5117 61.3554 47.5117C59.4259 47.5117 57.8464 48.3956 56.8898 50.0033C55.3771 51.8126 53.501 53.9275 53.0457 54.2552C49.5219 56.6459 46.7634 56.3745 43.7112 53.3224L26.6766 36.2863C23.6438 33.2534 23.3649 30.4608 25.7393 26.9563C26.0715 26.498 28.1864 24.6204 29.9958 23.1062C31.1496 22.4196 31.9416 21.3992 32.2886 20.1475C32.7498 18.482 32.4102 16.5229 31.3216 14.6141C31.0651 14.1752 24.9578 3.83219 19.331 0.855661C18.281 0.299508 17.0975 0.00585938 15.911 0.00585938C13.9563 0.00585938 12.1173 0.76816 10.7351 2.1489L6.97104 5.91146C1.01798 11.863 -1.13693 18.6095 0.562671 25.9626C1.98049 32.0907 6.11234 38.6118 12.8455 45.3434L34.6541 67.152C43.1758 75.6738 51.3001 79.9955 58.8015 79.9955C58.8015 79.9955 58.8015 79.9955 58.803 79.9955C64.32 79.9955 69.4633 77.6507 74.0861 73.028L77.8486 69.2654C80.1355 66.98 80.6546 63.5244 79.1434 60.6695Z" fill="#F49D37"/>
</g>
<defs>
<clipPath id="clip0_311_3775">
<rect width="80" height="80" fill="white"/>
</clipPath>
</defs>
</svg>
