<svg width="80" height="80" viewBox="0 0 80 80" fill="none" xmlns="http://www.w3.org/2000/svg">
<path d="M40.0003 0C27.0739 0 16.5576 10.5163 16.5576 23.4426C16.5576 26.9679 17.3212 30.3558 18.8266 33.5147C18.8569 33.5823 18.8887 33.6486 18.9226 33.715L36.6347 68.0093C37.285 69.268 38.5834 70.0589 40 70.0589C41.4168 70.0589 42.7152 69.2683 43.3652 68.0093L61.0725 33.7244C61.1031 33.6653 61.1315 33.6056 61.1588 33.5453C62.6742 30.3773 63.4423 26.9791 63.4423 23.4426C63.4429 10.5163 52.9267 0 40.0003 0ZM40.0003 35.713C33.2344 35.713 27.7299 30.2085 27.7299 23.4426C27.7299 16.677 33.2344 11.1726 40.0003 11.1726C46.7662 11.1726 52.2706 16.677 52.2706 23.4426C52.2706 30.2085 46.7662 35.713 40.0003 35.713Z" fill="#F49D37"/>
<path d="M49.0308 75.4546H30.9708C29.7154 75.4546 28.6982 76.4718 28.6982 77.7272C28.6982 78.9825 29.7154 79.9997 30.9708 79.9997H49.0308C50.2862 79.9997 51.3034 78.9825 51.3034 77.7272C51.3034 76.4718 50.2859 75.4546 49.0308 75.4546Z" fill="#F49D37"/>
</svg>
