<svg width="100" height="100" viewBox="0 0 100 100" fill="none" xmlns="http://www.w3.org/2000/svg">
<g clip-path="url(#clip0_833_412)">
<path d="M68.915 31.4629L42.6149 57.7633L30.724 45.8717L21.6445 54.9508L42.6149 75.9209L77.9941 40.5423L68.915 31.4629Z" fill="#219653"/>
<path d="M50.0002 0C22.3856 0 0 22.3856 0 50.0002C0 77.6147 22.3856 100 50.0002 100C77.6147 100 100 77.6147 100 50.0002C100 22.3856 77.6144 0 50.0002 0ZM50.0002 87.1605C29.4615 87.1605 12.8395 70.5405 12.8395 50.0002C12.8395 29.4615 29.4596 12.8395 50.0002 12.8395C70.5388 12.8395 87.1608 29.4596 87.1608 50.0002C87.1605 70.5385 70.5405 87.1605 50.0002 87.1605Z" fill="#219653"/>
</g>
<defs>
<clipPath id="clip0_833_412">
<rect width="100" height="100" fill="white"/>
</clipPath>
</defs>
</svg>
